# xmcd
#
# Track frame offsets: 
#        150
#        13597
#        27017
#        54722
#        75044
#        80585
#        98966
#        123332
#        140458
#        160105
#        187816
#        221467
#        240927
#
# Disc length: 3493 seconds
#
# Revision: 2
# Processed by: cddbd v1.5.2PL0 Copyright (c) Steve Scherf et al.
# Submitted via: ExactAudioCopy v1.1
#
DISCID=920da30d
DTITLE=SOIL and "PIMP" SESSEIONS - 6
DYEAR=2009
DGENRE=Jazz
TTITLE0=SEVEN（Intro Sound Collage by DJKENTARO）
TTITLE1=KEIZOKU
TTITLE2=PAPA'S GOT A BRAND NEW PIGBAG
TTITLE3=MY FOOLISH HEART ～crazy in mind～
TTITLE4=DOUBLE TROUBLE
TTITLE5=POP KORN
TTITLE6=Quartz And Chronometer
TTITLE7=Paraiso
TTITLE8=MY FOOLISH HEART ～crazy on earth～ x 椎名林檎
TTITLE9=MIRROR BOY
TTITLE10=STOLEN MOMENTS
TTITLE11=AFTER THE PARTY
TTITLE12=殺戮と平和
EXTD=YEAR: 2009
EXTT0=
EXTT1=
EXTT2=
EXTT3=
EXTT4=
EXTT5=
EXTT6=
EXTT7=
EXTT8=
EXTT9=
EXTT10=
EXTT11=
EXTT12=
PLAYORDER=
